<svg width="48" height="48" viewBox="0 0 48 48" fill="none" xmlns="http://www.w3.org/2000/svg">
<path d="M0 24C0 10.7452 10.7452 0 24 0H40C44.4183 0 48 3.58172 48 8V24C48 37.2548 37.2548 48 24 48C10.7452 48 0 37.2548 0 24Z" fill="#242743"/>
<path d="M0 24C0 10.7452 10.7452 0 24 0H40C44.4183 0 48 3.58172 48 8V24C48 37.2548 37.2548 48 24 48C10.7452 48 0 37.2548 0 24Z" fill="black" fill-opacity="0.2"/>
<path d="M36.4956 25.1394C36.488 26.6754 36.1398 28.0698 35.4509 29.3226C34.7408 30.5539 33.7226 31.5373 32.3963 32.2727C31.0487 32.9865 29.415 33.3353 27.4951 33.3189L22.1193 33.2731C19.2394 33.2485 17.0355 32.4191 15.5076 30.7846C13.9583 29.1501 13.1906 26.9461 13.2043 24.1728C13.2179 21.4208 13.9644 19.3045 15.4438 17.8237C16.9019 16.3214 18.8789 15.5809 21.3748 15.6022L21.5028 15.6033L21.4822 19.7633L21.2262 19.7611C20.4369 19.7543 19.7214 19.9189 19.0797 20.2548C18.4382 20.5693 17.9344 21.0557 17.5685 21.7139C17.1812 22.372 16.9851 23.2023 16.9802 24.205C16.9728 25.6983 17.4256 26.8755 18.3387 27.7367C19.2517 28.5978 20.4976 29.0351 22.0762 29.0486L27.58 29.0955C29.1373 29.1088 30.398 28.6929 31.3622 27.8477C32.3051 27.0024 32.7803 25.8118 32.7879 24.2758C32.7955 22.7398 32.3957 21.6163 31.5886 20.9054C30.7814 20.1945 29.7592 19.8338 28.5219 19.8233L28.202 19.8205L28.1756 25.1325L24.5918 25.1019L24.6387 15.63L36.0943 15.7277L36.0749 19.6317L33.931 19.6134L33.9282 20.1894C34.2901 20.3418 34.6728 20.5904 35.0765 20.9352C35.4802 21.2586 35.8191 21.7522 36.0931 22.4159C36.3672 23.0796 36.5014 23.9874 36.4956 25.1394Z" fill="white"/>
</svg>
